<?xml version="1.0" encoding="UTF-8"?>
<svg xmlns="http://www.w3.org/2000/svg" xmlns:xlink="http://www.w3.org/1999/xlink" width="30px" height="30px" viewBox="0 0 30 30" version="1.1">
<defs>
<filter id="alpha" filterUnits="objectBoundingBox" x="0%" y="0%" width="100%" height="100%">
  <feColorMatrix type="matrix" in="SourceGraphic" values="0 0 0 0 1 0 0 0 0 1 0 0 0 0 1 0 0 0 1 0"/>
</filter>
<mask id="mask0">
  <g filter="url(#alpha)">
<rect x="0" y="0" width="30" height="30" style="fill:rgb(0%,0%,0%);fill-opacity:0.301961;stroke:none;"/>
  </g>
</mask>
<clipPath id="clip1">
  <rect x="0" y="0" width="30" height="30"/>
</clipPath>
<g id="surface5" clip-path="url(#clip1)">
<path style=" stroke:none;fill-rule:nonzero;fill:rgb(100%,100%,100%);fill-opacity:1;" d="M 14.96875 8.089844 L 5.828125 5.222656 C 4.597656 4.839844 3.445312 5.996094 3.824219 7.226562 L 6.832031 16.8125 C 8 16.226562 8.636719 14.730469 8.246094 13.484375 L 6.757812 8.742188 C 6.644531 8.382812 6.984375 8.042969 7.34375 8.15625 L 12.03125 9.625 C 13.265625 10.015625 14.582031 9.324219 14.96875 8.089844 Z M 14.96875 8.089844 "/>
</g>
<mask id="mask1">
  <g filter="url(#alpha)">
<rect x="0" y="0" width="30" height="30" style="fill:rgb(0%,0%,0%);fill-opacity:0.14902;stroke:none;"/>
  </g>
</mask>
<clipPath id="clip2">
  <rect x="0" y="0" width="30" height="30"/>
</clipPath>
<g id="surface8" clip-path="url(#clip2)">
<path style=" stroke:none;fill-rule:nonzero;fill:rgb(0%,0%,0%);fill-opacity:1;" d="M 11.675781 24.417969 L 23.019531 13.074219 C 23.273438 12.820312 23.417969 12.515625 23.46875 12.199219 C 22.546875 11.492188 21.230469 11.550781 20.386719 12.390625 L 11.003906 21.777344 C 10.15625 22.621094 10.101562 23.945312 10.816406 24.863281 C 11.125 24.8125 11.425781 24.667969 11.675781 24.417969 Z M 11.675781 24.417969 "/>
</g>
<mask id="mask2">
  <g filter="url(#alpha)">
<rect x="0" y="0" width="30" height="30" style="fill:rgb(0%,0%,0%);fill-opacity:0.301961;stroke:none;"/>
  </g>
</mask>
<clipPath id="clip3">
  <rect x="0" y="0" width="30" height="30"/>
</clipPath>
<g id="surface11" clip-path="url(#clip3)">
<path style=" stroke:none;fill-rule:nonzero;fill:rgb(0%,0%,0%);fill-opacity:1;" d="M 26.484375 28.59375 C 26.484375 27.816406 21.34375 27.1875 15 27.1875 C 8.65625 27.1875 3.515625 27.816406 3.515625 28.59375 C 3.515625 29.371094 8.65625 30 15 30 C 21.34375 30 26.484375 29.371094 26.484375 28.59375 Z M 26.484375 28.59375 "/>
</g>
</defs>
<g id="surface1">
<path style=" stroke:none;fill-rule:nonzero;fill:rgb(61.176473%,20.392157%,76.078433%);fill-opacity:1;" d="M 24.898438 24.519531 L 23.121094 26.296875 C 22.570312 26.84375 21.679688 26.84375 21.132812 26.296875 L 11.066406 16.230469 C 10.519531 15.683594 10.519531 14.792969 11.066406 14.242188 L 12.84375 12.464844 C 13.394531 11.917969 14.285156 11.917969 14.835938 12.464844 L 24.898438 22.53125 C 25.449219 23.078125 25.449219 23.96875 24.898438 24.519531 Z M 24.898438 24.519531 "/>
<path style=" stroke:none;fill-rule:nonzero;fill:rgb(100%,100%,100%);fill-opacity:1;" d="M 23.019531 13.074219 L 11.675781 24.417969 C 10.824219 25.269531 9.371094 24.914062 9.011719 23.761719 L 3.824219 7.226562 C 3.445312 5.996094 4.597656 4.839844 5.828125 5.222656 L 22.363281 10.410156 C 23.515625 10.769531 23.871094 12.222656 23.019531 13.074219 Z M 23.019531 13.074219 "/>
<use xlink:href="#surface5" mask="url(#mask0)"/>
<use xlink:href="#surface8" mask="url(#mask1)"/>
<use xlink:href="#surface11" mask="url(#mask2)"/>
<path style="fill:none;stroke-width:3;stroke-linecap:round;stroke-linejoin:round;stroke:rgb(100%,100%,100%);stroke-opacity:1;stroke-miterlimit:10;" d="M 13.008333 14.991667 L 16.975 16.233333 " transform="matrix(0.46875,0,0,0.46875,0,0)"/>
</g>
</svg>
